<svg xmlns="http://www.w3.org/2000/svg" width="117" height="36">
    <path fill="#1279CC" fill-rule="evenodd" d="M108.659 15.494c-5.296-.844-9.525-3.51-14.087-9.321 1.609 1.804 3.928 2.788 6.085 3.723C96.942 7.42 94.572 6.173 90.713 0c7.413 6.91 16.8 9.185 21.649 7.185 1.275-.442 2.759.077 3.461.998.171.11.854.35 1.177.466-2.319.405-4.447 4.995-8.341 6.845zM93.261 7.076l.016 20.381c0 .692-.16.804-.827.804h-3.743c-1.027 0-1.188-.054-1.188-1.036v-.12c-1.384.73-3.041 1.156-4.98 1.156-13.679 0-14.213-22.117.37-22.117 1.768 0 3.305.413 4.61 1.121v-.201c0-.738.22-.904.937-.904h3.838c.914 0 .967.105.967.916zm-10.57 4.784c-7.052 0-6.794 10.696-.179 10.696 6.772 0 6.46-10.696.179-10.696zM69.525 27.992h-3.829c-1.027 0-1.188-.032-1.188-1.015V7.108c0-.738.219-.948.937-.948h3.673c.833 0 1.148.119 1.148.937v20.012c0 .779-.01.883-.741.883zm-17.325.269c-1.975 0-3.674-.463-5.095-1.252l.004 7.906c0 .935-.16 1.086-.827 1.086h-3.743c-1.027 0-1.188-.073-1.188-1.4V7.381c0-.997.22-1.221.937-1.221h3.838c.915 0 .967.141.967 1.237v.055c1.501-.822 3.322-1.308 5.477-1.308 12.987 0 13.632 22.117-.37 22.117zm.151-16.401c-7.052 0-6.793 10.696-.178 10.696 6.771 0 6.459-10.696.178-10.696zm-13.81 16.401h-3.742c-1.027 0-1.188-.054-1.188-1.036V7.064c0-.738.219-.904.937-.904h3.838c.914 0 .967.105.967.916l.016 20.381c0 .692-.16.804-.828.804zm-7.563-16.386c-1.837-.272-6.125.037-6.357 5.852l.001 9.715c0 .652-.058.822-.657.822h-4.459c-.491 0-.639-.148-.639-.637V6.798c0-.489.148-.637.639-.637h4.289c.852 0 .829.084.829.892V7.481c1.174-.738 2.584-1.363 5.323-1.364.357 0 1.006-.017 1.067.441.133 1.229.417 3.275.593 4.681.123.983.193.758-.629.636zM15.11 22.074l1.817 5.373c-1.001.576-2.701.813-3.901.813-7.306 0-10.732-4.628-10.732-11.114l-.002-5.318H.561c-.491 0-.561-.042-.561-.519V7.142c0-.9.214-.982.639-.982h1.653V.733c0-.518-.1-.687.486-.687h4.26c1.014 0 1.045.03 1.045.997V6.16l6.765.01c.753 0 .742.349.742 1.282v3.655c0 .55-.121.721-.733.721H8.083v5.722c0 6.666 6.391 4.947 7.027 4.524zm92.265-6.523c1.255.197 1.17.117-.02.34-3.222.603-4.374.874-5.631 2.99-.431-2.508-.521-1.729-5.78-3.376 3.042-.735 5.348-1.064 7.516-1.18 1.291.509 2.243.965 3.915 1.226z"/>
</svg>
